<?xml version="1.0" encoding="utf-8"?>
<!-- Generator: Adobe Illustrator 25.2.3, SVG Export Plug-In . SVG Version: 6.00 Build 0)  -->
<svg version="1.1" id="OpenSky_Logo" xmlns="http://www.w3.org/2000/svg" xmlns:xlink="http://www.w3.org/1999/xlink" x="0px"
	 y="0px" viewBox="0 0 369 369" style="enable-background:new 0 0 369 369;" xml:space="preserve">
<style type="text/css">
	.st0{fill:url(#Gradient_globe_1_);}
	.st1{fill:url(#Trail_shadow_1_);}
	.st2{fill:#FFFFFF;}
	.st3{fill:#1F3566;}
</style>
<radialGradient id="Gradient_globe_1_" cx="208.5401" cy="841.1384" r="210.1096" fx="415.854" fy="875.3" gradientTransform="matrix(0.7071 0.7071 0.6985 -0.6985 -550.4939 624.5765)" gradientUnits="userSpaceOnUse">
	<stop  offset="0" style="stop-color:#36C5A5"/>
	<stop  offset="0.1725" style="stop-color:#36C5A5"/>
	<stop  offset="0.2807" style="stop-color:#33B49E"/>
	<stop  offset="0.4941" style="stop-color:#2C898B"/>
	<stop  offset="0.7898" style="stop-color:#21436C"/>
	<stop  offset="0.8474" style="stop-color:#1F3566"/>
</radialGradient>
<circle id="Gradient_globe" class="st0" cx="184.5" cy="184.5" r="184.5"/>
<linearGradient id="Trail_shadow_1_" gradientUnits="userSpaceOnUse" x1="284.7791" y1="1047.4247" x2="151.2251" y2="913.8707" gradientTransform="matrix(1 0 0 1 0 -704)">
	<stop  offset="6.952178e-02" style="stop-color:#3EB49A"/>
	<stop  offset="0.3318" style="stop-color:#278D97"/>
	<stop  offset="0.8799" style="stop-color:#283478"/>
</linearGradient>
<path id="Trail_shadow" class="st1" d="M214,119.6c142.5,135.5-7.1,228.8-108.7,231.5c32.3,11.8,47.5,9.7,77.1,9.7
	c48.4,0,92.4-18.6,125.3-49.1C336.9,253.9,347.8,165.7,214,119.6z"/>
<path id="White_trail" class="st2" d="M216.1,128.2c142.5,135.5-7.9,207.7-68.7,222.3c-17.2,4.8-33.5,4.6-45.3-0.4
	c24.8,12.4,52.8,19.4,82.4,19.4c48.4,0,92.4-18.6,125.3-49.1C339.1,262.4,350,174.2,216.1,128.2z"/>
<path id="Plane_shadow" class="st3" d="M187.5,66.8c-0.1,0-0.1,0-0.2,0.1l-8.2,9.4c0.1,0,0.2,0.1,0.3,0.1c0.7,0.3,1.1,0.7,1,1
	s-0.7,0.3-1.4,0c-0.1-0.1-0.3-0.1-0.4-0.2c-0.1-0.1-0.2,0-0.3,0l-4.8,5.6c-0.1,0.1-0.1,0.3,0.1,0.3c0.1,0,0.1,0.1,0.2,0.1
	c0.7,0.3,1.1,0.7,1,1s-0.7,0.3-1.4,0c-0.2-0.1-0.4-0.2-0.6-0.3c-0.1-0.1-0.2-0.1-0.3,0l-2.7,3.1c0,0,0,0,0,0.1l-1.1,2.5
	c-0.1,0.1,0,0.3,0.1,0.3s0.3,0.1,0.4,0.1c0.7,0.3,1.1,0.7,1,1s-0.7,0.3-1.4,0c-0.1-0.1-0.3-0.1-0.4-0.2c-0.1-0.1-0.3,0-0.3,0.1
	l-2.4,5.5c0,0.1,0,0.2,0.1,0.3l14.7,6.4c1.1,0.5,2.1,1.1,3.1,1.7l4.3,3.1c0.5,0.4,1.3,0.4,1.8,0l10.9-7.1c0.1,0,0.1,0,0.2,0l2.2,0.9
	c0.1,0.1,0.2,0.2,0.1,0.3l-7.6,10.2c-0.1,0.1-0.1,0.2,0,0.3l4.1,3.1c0.5,0.4,0.2,1.2-0.5,1.1l-5.1-0.9c-0.1,0-0.2,0.1-0.2,0.2
	l-2.3,12.5c0,0.1-0.2,0.2-0.3,0.2l-2.2-0.9c-0.1,0-0.1-0.1-0.1-0.2l-2.1-12.8c-0.1-0.7-0.6-1.2-1.3-1.3l-5.2-1.1
	c-1.2-0.2-2.3-0.6-3.4-1.1l-14.7-6.4c-0.1,0-0.2,0-0.3,0.1l-2.4,5.5c-0.1,0.1,0,0.3,0.1,0.3s0.3,0.1,0.4,0.1c0.7,0.3,1.1,0.7,1,1
	s-0.7,0.3-1.4,0c-0.1-0.1-0.3-0.1-0.4-0.2c-0.1-0.1-0.3,0-0.3,0.1l-1.1,2.5c0,0,0,0,0,0.1l-0.5,4.1c0,0.1,0.1,0.2,0.2,0.2
	c0.2,0,0.4,0.1,0.6,0.2c0.7,0.3,1.1,0.7,1,1s-0.7,0.3-1.4,0c-0.1,0-0.1-0.1-0.2-0.1c-0.1-0.1-0.3,0-0.3,0.2l-0.8,7.3
	c0,0.1,0.1,0.2,0.2,0.2c0.1,0,0.3,0.1,0.4,0.1c0.7,0.3,1.1,0.7,1,1s-0.7,0.3-1.4,0c-0.1,0-0.2-0.1-0.3-0.1l-1.4,12.4
	c0,0.1,0,0.1,0.1,0.2l0.2,0.2c0.2,0.2-0.1,0.5-0.3,0.3l-2.9-1.9c-0.1,0-0.1-0.1-0.1-0.2l-1.9-26.7c0-0.1-0.1-0.1-0.1-0.2l-5.8-2.5
	c-0.8-0.4-1.2-1.4-0.9-2.2l0.7-1.5c0.4-0.8,1.4-1.2,2.2-0.9l3.2,1.4c0.1,0.1,0.3,0,0.3-0.2l-0.4-6.7c0-0.1,0-0.1-0.1-0.2l-1.7-1.3
	l0,0L134.8,93l0,0c-0.2-0.1-4-2-6.4-4.8c-2.5-2.9-1.9-3.8-1.9-3.8s0.2-1.1,4-1.2c3.7-0.1,7.7,1.4,7.9,1.5l0,0l12.5,5.5l0,0l2.1,0.4
	c0.1,0,0.1,0,0.2,0l5.2-4.3c0.1-0.1,0.1-0.3,0-0.4l-3.2-1.4c-0.8-0.4-1.2-1.4-0.9-2.2l0.7-1.5c0.4-0.8,1.4-1.2,2.2-0.9l5.8,2.5
	c0.1,0,0.2,0,0.2,0l20.9-16.7c0.1,0,0.1-0.1,0.2,0l3.4,0.8C187.9,66.6,187.9,66.9,187.5,66.8L187.5,66.8z"/>
<path id="Plane" class="st2" d="M190.3,73.3c-0.1,0-0.1,0-0.2,0.1l-8.2,9.4c0.1,0,0.2,0.1,0.3,0.1c0.7,0.3,1.1,0.7,1,1
	s-0.7,0.3-1.4,0c-0.1-0.1-0.3-0.1-0.4-0.2c-0.1-0.1-0.2,0-0.3,0l-4.8,5.6c-0.1,0.1-0.1,0.3,0.1,0.3c0.1,0,0.1,0.1,0.2,0.1
	c0.7,0.3,1.1,0.7,1,1s-0.7,0.3-1.4,0c-0.2-0.1-0.4-0.2-0.6-0.3c-0.1-0.1-0.2-0.1-0.3,0l-2.7,3.1c0,0,0,0,0,0.1l-1.1,2.5
	c-0.1,0.1,0,0.3,0.1,0.3s0.3,0.1,0.4,0.1c0.7,0.3,1.1,0.7,1,1s-0.7,0.3-1.4,0c-0.1-0.1-0.3-0.1-0.4-0.2c-0.1-0.1-0.3,0-0.3,0.1
	l-2.4,5.5c0,0.1,0,0.2,0.1,0.3l14.7,6.4c1.1,0.5,2.1,1.1,3.1,1.7l4.3,3.1c0.5,0.4,1.3,0.4,1.8,0l10.9-7.1c0.1,0,0.1,0,0.2,0l2.2,0.9
	c0.1,0.1,0.2,0.2,0.1,0.3l-7.6,10.2c-0.1,0.1-0.1,0.2,0,0.3l4.1,3.1c0.5,0.4,0.2,1.2-0.5,1.1l-5.1-0.9c-0.1,0-0.2,0.1-0.2,0.2
	l-2.3,12.5c0,0.1-0.2,0.2-0.3,0.2l-2.2-0.9c-0.1,0-0.1-0.1-0.1-0.2l-2.1-12.8c-0.1-0.7-0.6-1.2-1.3-1.3l-5.2-1.1
	c-1.2-0.2-2.3-0.6-3.4-1.1l-14.7-6.4c-0.1,0-0.2,0-0.3,0.1l-2.4,5.5c-0.1,0.1,0,0.3,0.1,0.3s0.3,0.1,0.4,0.1c0.7,0.3,1.1,0.7,1,1
	s-0.7,0.3-1.4,0c-0.1-0.1-0.3-0.1-0.4-0.2c-0.1-0.1-0.3,0-0.3,0.1l-1.1,2.5c0,0,0,0,0,0.1l-0.5,4.1c0,0.1,0.1,0.2,0.2,0.2
	c0.2,0,0.4,0.1,0.6,0.2c0.7,0.3,1.1,0.7,1,1s-0.7,0.3-1.4,0c-0.1,0-0.1-0.1-0.2-0.1c-0.1-0.1-0.3,0-0.3,0.2l-0.8,7.3
	c0,0.1,0.1,0.2,0.2,0.2c0.1,0,0.3,0.1,0.4,0.1c0.7,0.3,1.1,0.7,1,1s-0.7,0.3-1.4,0c-0.1,0-0.2-0.1-0.3-0.1l-1.4,12.4
	c0,0.1,0,0.1,0.1,0.2l0.2,0.2c0.2,0.2-0.1,0.5-0.3,0.3l-2.9-1.9c-0.1,0-0.1-0.1-0.1-0.2l-1.9-26.7c0-0.1-0.1-0.1-0.1-0.2l-5.8-2.5
	c-0.8-0.4-1.2-1.4-0.9-2.2l0.7-1.5c0.4-0.8,1.4-1.2,2.2-0.9l3.2,1.4c0.1,0.1,0.3,0,0.3-0.2l-0.4-6.7c0-0.1,0-0.1-0.1-0.2l-1.7-1.3
	l0,0l-12.5-5.5l0,0c-0.2-0.1-4-2-6.4-4.8c-2.5-2.9-1.9-3.8-1.9-3.8s0.2-1.1,4-1.2c3.7-0.1,7.7,1.4,7.9,1.5l0,0l12.5,5.5l0,0l2.1,0.4
	c0.1,0,0.1,0,0.2,0l5.2-4.3c0.1-0.1,0.1-0.3,0-0.4l-3.2-1.4c-0.8-0.4-1.2-1.4-0.9-2.2l0.7-1.5c0.4-0.8,1.4-1.2,2.2-0.9l5.8,2.5
	c0.1,0,0.2,0,0.2,0L187,72.1c0.1,0,0.1-0.1,0.2,0l3.4,0.8c0.2,0.1,0.2,0.4-0.1,0.4H190.3z"/>
</svg>
