<?xml version="1.0" encoding="utf-8"?>
<!-- Generator: Adobe Illustrator 25.2.3, SVG Export Plug-In . SVG Version: 6.00 Build 0)  -->
<svg version="1.1" id="OpenSky_Logo" xmlns="http://www.w3.org/2000/svg" xmlns:xlink="http://www.w3.org/1999/xlink" x="0px"
	 y="0px" viewBox="0 0 369 369" style="enable-background:new 0 0 369 369;" xml:space="preserve">
<style type="text/css">
	.st0{fill:url(#Gradient_globe_1_);}
	.st1{fill:#FFFFFF;}
</style>
<radialGradient id="Gradient_globe_1_" cx="208.5401" cy="841.1384" r="210.1096" fx="415.854" fy="875.3" gradientTransform="matrix(0.7071 0.7071 0.6985 -0.6985 -550.4939 624.5765)" gradientUnits="userSpaceOnUse">
	<stop  offset="0" style="stop-color:#36C5A5"/>
	<stop  offset="0.1725" style="stop-color:#36C5A5"/>
	<stop  offset="0.2807" style="stop-color:#33B49E"/>
	<stop  offset="0.4941" style="stop-color:#2C898B"/>
	<stop  offset="0.7898" style="stop-color:#21436C"/>
	<stop  offset="0.8474" style="stop-color:#1F3566"/>
</radialGradient>
<circle id="Gradient_globe" class="st0" cx="184.5" cy="184.5" r="184.5"/>
<path id="XMLID_6_" class="st1" d="M335.5,219.7c-0.1-0.2-0.3-0.4-0.5-0.5l-44.3-15.4c0,0.4,0.1,0.8,0.1,1.3c0,3-0.9,5.4-2,5.4
	s-2-2.4-2-5.4c0-0.6,0-1.2,0.1-1.8c0.1-0.4-0.2-0.8-0.6-1l-26.2-9.1c-0.5-0.2-1.1,0.3-1,0.9c0,0.3,0,0.6,0,1c0,3-0.9,5.4-2,5.4
	s-2-2.4-2-5.4c0-1,0.1-1.9,0.3-2.7c0.1-0.5-0.1-0.9-0.5-1.1l-14.7-5.1c-0.1,0-0.2,0-0.2,0h-10.1c-0.5,0-0.9,0.5-0.8,1
	c0.1,0.6,0.1,1.2,0.1,1.8c0,3-0.9,5.4-2,5.4s-2-2.4-2-5.4c0-0.6,0-1.3,0.1-1.8c0.1-0.5-0.3-1-0.8-1h-22.3c-0.4,0-0.8,0.4-0.8,0.9
	v66.6c0,4.9-0.5,9.8-1.4,14.6l-4.1,21.5c-0.5,2.7,0.5,5.4,2.6,7l40.5,29.4c0.2,0.2,0.4,0.4,0.4,0.7v9.8c0,0.6-0.5,1-1,0.9l-46.1-12
	c-0.4-0.1-0.9,0.2-1,0.7l-4.6,20.7c-0.6,2.6-3.9,2.6-4.5,0l-4.6-20.7c-0.1-0.5-0.5-0.8-1-0.7l-46.1,12c-0.5,0.1-1-0.3-1-0.9V327
	c0-0.3,0.1-0.6,0.4-0.7l40.5-29.4c2.1-1.5,3.1-4.3,2.6-7l-4.1-21.5c-0.9-4.8-1.4-9.7-1.4-14.6v-66.6c0-0.5-0.4-0.9-0.8-0.9h-22.3
	c-0.5,0-0.9,0.5-0.8,1c0.1,0.6,0.1,1.2,0.1,1.8c0,3-0.9,5.4-2,5.4s-2-2.4-2-5.4c0-0.6,0-1.3,0.1-1.8c0.1-0.5-0.3-1-0.8-1h-10.1
	c-0.1,0-0.2,0-0.2,0l-14.7,5.1c-0.4,0.1-0.6,0.6-0.5,1.1c0.2,0.8,0.3,1.7,0.3,2.7c0,3-0.9,5.4-2,5.4s-2-2.4-2-5.4c0-0.3,0-0.7,0-1
	c0-0.6-0.5-1.1-1-0.9l-26.2,9.1c-0.4,0.1-0.6,0.5-0.6,1c0.1,0.6,0.1,1.2,0.1,1.8c0,3-0.9,5.4-2,5.4c-1.1,0-2-2.4-2-5.4
	c0-0.4,0-0.9,0.1-1.3L34,219.2c-0.2,0.1-0.4,0.3-0.5,0.5l-0.4,0.9c-0.4,1-1.7,0.5-1.5-0.5l2.3-14.3c0-0.3,0.2-0.5,0.4-0.6l88.3-51.8
	c0.3-0.2,0.4-0.5,0.4-0.8v-26.2c0-3.8,2.8-7,6.2-7h6.3c3.4,0,6.2,3.1,6.2,7v14.4c0,0.7,0.6,1.1,1.2,0.8l22.4-12.8
	c0.2-0.1,0.4-0.3,0.4-0.6l1.8-8.4c0-0.1,0-0.1,0-0.2V62.9c0,0,0,0,0-0.1c0-0.8,1-18.4,6.8-32.5c5.9-14.4,10.1-13.4,10.1-13.4
	s4.2-1.1,10.1,13.4c5.8,14.1,6.7,31.7,6.8,32.5c0,0,0,0,0,0.1v56.7c0,0.1,0,0.1,0,0.2l1.8,8.4c0.1,0.3,0.2,0.5,0.4,0.6l22.4,12.8
	c0.5,0.3,1.2-0.1,1.2-0.8v-14.4c0-3.8,2.8-7,6.2-7h6.3c3.4,0,6.2,3.1,6.2,7v26.2c0,0.3,0.2,0.6,0.4,0.8l88.3,51.8
	c0.2,0.1,0.4,0.4,0.4,0.6l2.3,14.3c0.2,1-1.1,1.5-1.5,0.5L335.5,219.7z"/>
</svg>
